<?xml version="1.0" encoding="utf-8"?>
<!-- Generator: Adobe Illustrator 15.0.0, SVG Export Plug-In . SVG Version: 6.00 Build 0)  -->
<!DOCTYPE svg PUBLIC "-//W3C//DTD SVG 1.1//EN" "http://www.w3.org/Graphics/SVG/1.1/DTD/svg11.dtd">
<svg version="1.1" id="Layer_1" xmlns="http://www.w3.org/2000/svg" xmlns:xlink="http://www.w3.org/1999/xlink" x="0px" y="0px"
	 width="308.182px" height="313.227px" viewBox="0 0 308.182 313.227" enable-background="new 0 0 308.182 313.227"
	 xml:space="preserve">
<g>
	<g>
		<defs>
			<path id="SVGID_1_" d="M21.902,173.88c0,73.549,59.62,133.167,133.167,133.167c73.542,0,133.165-59.618,133.165-133.167
				c0-73.543-59.623-133.166-133.165-133.166C81.522,40.714,21.902,100.337,21.902,173.88z"/>
		</defs>
		<use xlink:href="#SVGID_1_"  overflow="visible" fill="#FFFFFF"/>
		<clipPath id="SVGID_2_">
			<use xlink:href="#SVGID_1_"  overflow="visible"/>
		</clipPath>
		<g clip-path="url(#SVGID_2_)">
			<path fill="#FA7B68" d="M222.111,342.966c5.046,0,8.812-4.377,8.369-9.408l-15.802-178.431c-0.446-5.031-4.942-9.67-9.991-9.67
				h-50.362v197.509H222.111z"/>
			<path opacity="0.28" fill="#FA7B68" d="M222.111,342.966c5.046,0,8.812-4.377,8.369-9.408l-15.802-178.431
				c-0.446-5.031-4.942-9.67-9.991-9.67h-50.362v197.509H222.111z"/>
			<path fill="#FA7B68" d="M86.848,342.966h67.478V145.457h-50.054c-5.051,0-9.547,4.639-9.995,9.67L78.478,333.558
				C78.032,338.589,81.8,342.966,86.848,342.966z"/>
		</g>
	</g>
	
		<line fill="none" stroke="#969C90" stroke-width="4.4388" stroke-miterlimit="10" x1="154.799" y1="41.643" x2="154.799" y2="8.352"/>
	<g>
		<path fill="#FA7B68" d="M202.167,112.438l-11.116-68.18c-0.989-6.022-6.79-11.501-12.896-11.501h-23.523v37.485l-4.794,13.915
			h4.794v39.594h38.238C198.971,123.751,203.153,118.459,202.167,112.438z"/>
		<path opacity="0.28" fill="#FA7B68" d="M202.167,112.438l-11.116-68.18c-0.989-6.022-6.79-11.501-12.896-11.501h-23.523v23.26
			l-8.874,32.217h8.874v35.517h38.238C198.971,123.751,203.153,118.459,202.167,112.438z"/>
		<path fill="#FA7B68" d="M130.803,32.757c-6.102,0-11.909,5.479-12.899,11.501l-11.113,68.18
			c-0.99,6.021,3.195,11.313,9.298,11.313h38.541V87.925v-4.708V64.805V32.757H130.803z"/>
	</g>
	<circle fill="#F2F1E6" cx="155.414" cy="215.636" r="5.857"/>
	<path fill="#F2F1E6" d="M161.271,187.088c0,3.235-2.62,5.856-5.854,5.856c-3.236,0-5.86-2.621-5.86-5.856
		c0-3.236,2.624-5.858,5.86-5.858C158.651,181.229,161.271,183.852,161.271,187.088z"/>
	<path fill="#F2F1E6" d="M161.271,244.188c0,3.234-2.62,5.855-5.854,5.855c-3.236,0-5.86-2.621-5.86-5.855
		c0-3.238,2.624-5.859,5.86-5.859C158.651,238.329,161.271,240.95,161.271,244.188z"/>
	<path fill="#F2F1E6" d="M161.271,272.737c0,3.231-2.62,5.855-5.854,5.855c-3.236,0-5.86-2.624-5.86-5.855
		c0-3.238,2.624-5.859,5.86-5.859C158.651,266.878,161.271,269.499,161.271,272.737z"/>
	<g>
		<g>
			<path fill="#B5C9B1" d="M158.418,141.793l-2.493-0.245c-0.003,0-0.003,0-0.003,0l-29.515-2.888l-32.012-3.134
				c0,0-9.911,5.585-10.804,6.256c-0.895,0.671-1.008,2.013,0.782,2.797c2.531,1.107,53.955,23.21,53.955,23.21
				c1.265,0.545,2.926,0.05,3.684-1.101l15.025-22.799c0.268-0.404,0.327-0.779,0.301-1.125L158.418,141.793z"/>
		</g>
		<g>
			<path fill="#B5C9B1" d="M150.125,141.793l2.493-0.245c0.003,0,0.003,0,0.003,0l29.513-2.888l32.013-3.134
				c0,0,9.909,5.585,10.804,6.256c0.896,0.671,1.009,2.013-0.781,2.797c-2.532,1.107-53.954,23.21-53.954,23.21
				c-1.267,0.545-2.927,0.05-3.686-1.101l-15.024-22.799c-0.269-0.404-0.327-0.779-0.302-1.125L150.125,141.793z"/>
		</g>
	</g>
	<g>
		<path fill="#F2F1E6" d="M183.298,70.772c0,5.108-4.14,9.246-9.246,9.246c-5.111,0-9.25-4.138-9.25-9.246
			c0-5.109,4.139-9.248,9.25-9.248C179.159,61.524,183.298,65.663,183.298,70.772z"/>
		<path fill="#969C90" d="M174.034,70.786v-5.451c-2.994,0.013-5.419,2.44-5.419,5.436c0,3.001,2.435,5.436,5.438,5.436
			c2.996,0,5.425-2.427,5.431-5.42H174.034z"/>
		<circle fill="#052336" cx="174.049" cy="70.77" r="1.93"/>
	</g>
	<g opacity="0.11">
		<g>
			
				<rect x="178.967" y="57.528" transform="matrix(0.8507 0.5256 -0.5256 0.8507 57.8657 -86.0707)" fill="#052336" width="2.98" height="2.615"/>
		</g>
		<g>
			<rect x="172.555" y="55.621" fill="#052336" width="2.979" height="2.617"/>
		</g>
		<g>
			
				<rect x="166.561" y="57.296" transform="matrix(0.4602 0.8878 -0.8878 0.4602 142.8162 -117.3059)" fill="#052336" width="2.617" height="2.979"/>
		</g>
	</g>
	<g>
		<path fill="#F2F1E6" d="M143.479,70.772c0,5.108-4.139,9.246-9.247,9.246c-5.11,0-9.25-4.138-9.25-9.246
			c0-5.109,4.139-9.248,9.25-9.248C139.339,61.524,143.479,65.663,143.479,70.772z"/>
		<path fill="#969C90" d="M134.214,70.786v-5.451c-2.992,0.013-5.417,2.44-5.417,5.436c0,3.001,2.435,5.436,5.436,5.436
			c2.997,0,5.425-2.427,5.433-5.42H134.214z"/>
		<circle fill="#052336" cx="134.23" cy="70.77" r="1.929"/>
	</g>
	<g opacity="0.11">
		<g>
			
				<rect x="139.149" y="57.527" transform="matrix(0.8506 0.5259 -0.5259 0.8506 51.9532 -65.1636)" fill="#052336" width="2.979" height="2.615"/>
		</g>
		<g>
			<rect x="132.736" y="55.621" fill="#052336" width="2.981" height="2.617"/>
		</g>
		<g>
			
				<rect x="126.741" y="57.296" transform="matrix(0.46 0.8879 -0.8879 0.46 121.3428 -81.9532)" fill="#052336" width="2.617" height="2.979"/>
		</g>
	</g>
	<g>
		<path fill="#B5C9B1" d="M148.91,4.358c-3.137,3.144-3.137,8.236,0,11.377c1.575,1.568,3.632,2.356,5.688,2.356V2.002
			C152.542,2.002,150.484,2.787,148.91,4.358z"/>
		<path fill="#B5C9B1" d="M160.29,4.358c-1.572-1.571-3.632-2.357-5.692-2.356v16.089c2.061,0,4.12-0.784,5.692-2.356
			C163.429,12.594,163.429,7.502,160.29,4.358z"/>
	</g>
	<path fill="#052336" d="M140.137,91.539v2.579v2.227l0.149,1.378c0.639,3.006,3.32,5.282,6.51,5.282h16.644
		c3.287,0,6.012-2.418,6.546-5.56l0.113-1.101V94.67v-3.132H140.137z"/>
	<g>
		<circle fill="#FFE473" cx="189.105" cy="194.688" r="6.264"/>
		<circle fill="#FFE473" cx="188.79" cy="203.862" r="6.263"/>
		<circle fill="#FFE473" cx="188.79" cy="205.877" r="6.263"/>
		<circle fill="#FFE473" cx="182.345" cy="199.117" r="6.264"/>
		<circle fill="#FFE473" cx="189.105" cy="192.671" r="6.264"/>
		<circle fill="#FFE473" cx="195.55" cy="199.433" r="6.264"/>
	</g>
	<circle fill="#052336" cx="188.948" cy="199.274" r="1.929"/>
	<g>
		<path fill="#B5C9B1" d="M286.86,159.733c0-6.192-0.984-12.573-2.851-18.157l-8.474,2.919c1.684,4.886,2.535,10.013,2.535,15.238
			c0,25.56-20.612,46.385-46.088,46.745l0.764,8.758C262.224,213.807,286.86,189.493,286.86,159.733z"/>
		<path fill="#B5C9B1" d="M295.648,159.733c0-7.177-1.177-14.228-3.495-20.961l-8.144,2.804c1.866,5.584,2.851,11.965,2.851,18.157
			c0,29.76-24.636,54.073-54.113,55.503l0.767,8.791C267.972,222.864,295.648,194.471,295.648,159.733z"/>
		<path opacity="0.35" fill="#B5C9B1" d="M295.648,159.733c0-7.177-1.177-14.228-3.495-20.961l-8.144,2.804
			c1.866,5.584,2.851,11.965,2.851,18.157c0,29.76-24.636,54.073-54.113,55.503l0.767,8.791
			C267.972,222.864,295.648,194.471,295.648,159.733z"/>
	</g>
	<g>
		<path fill="none" stroke="#FA7B68" stroke-width="15.0638" stroke-miterlimit="10" d="M257.211,118.128
			c-0.749,4.381-0.122,9.021,2.126,13.252c5.388,10.136,17.979,13.99,28.124,8.601c10.145-5.394,13.99-17.991,8.602-28.129
			c-2.245-4.225-5.752-7.338-9.793-9.168"/>
	</g>
	<g>
		<path fill="#B5C9B1" d="M22.652,159.733c0-6.192,0.984-12.573,2.851-18.157l8.474,2.919c-1.685,4.886-2.538,10.013-2.538,15.238
			c0,25.56,20.616,46.385,46.089,46.745l-0.764,8.758C47.287,213.807,22.652,189.493,22.652,159.733z"/>
		<path fill="#B5C9B1" d="M13.864,159.733c0-7.177,1.177-14.228,3.494-20.961l8.145,2.804c-1.866,5.584-2.851,11.965-2.851,18.157
			c0,29.76,24.635,54.073,54.112,55.503l-0.767,8.791C41.539,222.864,13.864,194.471,13.864,159.733z"/>
		<path opacity="0.35" fill="#B5C9B1" d="M13.864,159.733c0-7.177,1.177-14.228,3.494-20.961l8.145,2.804
			c-1.866,5.584-2.851,11.965-2.851,18.157c0,29.76,24.635,54.073,54.112,55.503l-0.767,8.791
			C41.539,222.864,13.864,194.471,13.864,159.733z"/>
	</g>
	<g>
		<path fill="none" stroke="#FA7B68" stroke-width="15.0638" stroke-miterlimit="10" d="M52.301,118.128
			c0.748,4.381,0.124,9.021-2.125,13.252c-5.388,10.136-17.981,13.99-28.124,8.601c-10.146-5.394-13.993-17.991-8.604-28.129
			c2.247-4.225,5.752-7.338,9.795-9.168"/>
	</g>
</g>
</svg>
